<svg xmlns="http://www.w3.org/2000/svg" viewBox="0 0 21.42 20.52">
  <title>etoile</title>
  <g id="Calque_2" data-name="Calque 2">
    <g id="OBJECTS">
      <g>
        <path d="M19.42,19.05c0-.08,0-.09-.05,0Z" style="fill: #fff"/>
        <path d="M19.3,18.82h0Z" style="fill: #fff"/>
        <path d="M19.33,18.78a.19.19,0,0,0-.17.1.35.35,0,0,1,.14-.06S19.29,18.79,19.33,18.78Z" style="fill: #fff"/>
        <path d="M19.31,18.83s0,0,0,.08S19.44,18.93,19.31,18.83Z" style="fill: #fff"/>
        <path d="M16.69,16.46l0-.06S16.67,16.43,16.69,16.46Z" style="fill: #fff"/>
        <path d="M12.53,12.94a0,0,0,0,0,0,0S12.56,13,12.53,12.94Z" style="fill: #fff"/>
        <path d="M2.3,5.23a.14.14,0,0,1,0-.06S2.21,5.17,2.3,5.23Z" style="fill: #fff"/>
        <path d="M11.89,13.14s-.06-.17,0,0Z" style="fill: #fff"/>
        <path d="M11,11.68s0,.05.07.06Z" style="fill: #fff"/>
        <path d="M12.9,13.94l.17.05C13,14,13,13.87,12.9,13.94Z" style="fill: #fff"/>
        <path d="M13.74,14.49a.11.11,0,0,0-.08,0S13.71,14.54,13.74,14.49Z" style="fill: #fff"/>
        <path d="M19.07,18.67a.12.12,0,0,0-.2,0C19,18.64,19.05,18.65,19.07,18.67Z" style="fill: #fff"/>
        <path d="M19.07,18.67Z" style="fill: #fff"/>
        <path d="M19,18.71c.23,0,.27,0,.1,0C19.09,18.68,19.05,18.69,19,18.71Z" style="fill: #fff"/>
        <path d="M19,18.58l0,0S19,18.59,19,18.58Z" style="fill: #fff"/>
        <path d="M13.08,14h0Z" style="fill: #fff"/>
        <polygon points="5.63 7.98 5.64 7.97 5.62 7.97 5.63 7.98" style="fill: #fff"/>
        <path d="M13.66,14.48h0S13.63,14.47,13.66,14.48Z" style="fill: #fff"/>
        <path d="M15,15.37H15S15,15.4,15,15.37Z" style="fill: #fff"/>
        <path d="M12.2,13.39h0Z" style="fill: #fff"/>
        <polygon points="19.07 18.84 19.08 18.83 19.06 18.82 19.07 18.84" style="fill: #fff"/>
        <path d="M18.71,18.53s0-.11-.09-.1S18.67,18.57,18.71,18.53Z" style="fill: #fff"/>
        <path d="M18.37,17.82l.08.09s0-.08.05-.05C18.44,17.71,18.48,17.93,18.37,17.82Z" style="fill: #fff"/>
        <path d="M18.16,17.52c-.05,0-.06,0,0,.05S18.15,17.53,18.16,17.52Z" style="fill: #fff"/>
        <path d="M16.12,15.93l0,0S16.14,15.9,16.12,15.93Z" style="fill: #fff"/>
        <polygon points="15.59 15.33 15.61 15.34 15.53 15.31 15.59 15.33" style="fill: #fff"/>
        <path d="M12.2,12.6l0,.07S12.26,12.61,12.2,12.6Z" style="fill: #fff"/>
        <path d="M10.7,11.47s0-.09-.07-.09S10.67,11.47,10.7,11.47Z" style="fill: #fff"/>
        <path d="M6.39,7.79a.06.06,0,0,0,.07,0Z" style="fill: #fff"/>
        <path d="M19.64,1.69q-.12-.06,0,.06Z" style="fill: #fff"/>
        <path d="M19.39,1.79h0A0,0,0,0,0,19.39,1.79Z" style="fill: #fff"/>
        <path d="M19.39,1.79s0,0,0,0a.15.15,0,0,0,.08.18C19.39,1.86,19.38,1.82,19.39,1.79Z" style="fill: #fff"/>
        <path d="M19.4,1.78s0,0,.09,0S19.52,1.66,19.4,1.78Z" style="fill: #fff"/>
        <path d="M16.54,4.11l-.06,0S16.52,4.13,16.54,4.11Z" style="fill: #fff"/>
        <path d="M12.26,7.86s0,0,0,0Z" style="fill: #fff"/>
        <path d="M2.69,17.2l-.07,0S2.6,17.28,2.69,17.2Z" style="fill: #fff"/>
        <path d="M12.35,8.54Z" style="fill: #fff"/>
        <path d="M10.72,9.29s0,0,.06-.07Z" style="fill: #fff"/>
        <path d="M13.42,7.44v0Z" style="fill: #fff"/>
        <path d="M13.34,7.62l.07-.16S13.28,7.57,13.34,7.62Z" style="fill: #fff"/>
        <path d="M14,6.85a.11.11,0,0,0,0,.08S14.08,6.88,14,6.85Z" style="fill: #fff"/>
        <path d="M16.57,4.11h0S16.57,4.1,16.57,4.11Z" style="fill: #fff"/>
        <polygon points="6.05 14.19 6.04 14.18 6.03 14.2 6.05 14.19" style="fill: #fff"/>
        <path d="M14,6.93h0S14,7,14,6.93Z" style="fill: #fff"/>
        <path d="M15.16,5.67l0,.06S15.18,5.7,15.16,5.67Z" style="fill: #fff"/>
        <path d="M12.66,8.26h0Z" style="fill: #fff"/>
        <path d="M19.36,2V2S19.37,2,19.36,2Z" style="fill: #fff"/>
        <path d="M19,2.34c0,.05-.12,0-.12.08S19,2.39,19,2.34Z" style="fill: #fff"/>
        <path d="M18.22,2.59l.1-.06s-.08,0,0-.06C18.11,2.51,18.34,2.5,18.22,2.59Z" style="fill: #fff"/>
        <path d="M17.88,2.77s0,.06,0,0S17.89,2.79,17.88,2.77Z" style="fill: #fff"/>
        <path d="M15.87,4.58s0,0,0,0Z" style="fill: #fff"/>
        <path d="M15.22,5.07l0,.07A.25.25,0,0,0,15.22,5.07Z" style="fill: #fff"/>
        <path d="M11.92,8.2s0-.1-.06,0Z" style="fill: #fff"/>
        <path d="M10.36,9.58s.09,0,.1-.05S10.36,9.53,10.36,9.58Z" style="fill: #fff"/>
        <path d="M6,13.4a.07.07,0,0,0,0-.07Z" style="fill: #fff"/>
        <path d="M14,20.52c.07-.06.05-.07,0,0Z" style="fill: #fff"/>
        <path d="M14,20.38c.08.08.08.05,0-.08S14.05,20.34,14,20.38Z" style="fill: #fff"/>
        <path d="M14.08,20.27a.19.19,0,0,0-.19,0,.24.24,0,0,1,.14,0S14,20.27,14.08,20.27Z" style="fill: #fff"/>
        <path d="M14,20.29h0Z" style="fill: #fff"/>
        <path d="M12.94,17.46s0,0,0,.06Z" style="fill: #fff"/>
        <path d="M6,3.67l0,0S6,3.59,6,3.67Z" style="fill: #fff"/>
        <path d="M10.43,13.24s0-.14,0,0Z" style="fill: #fff"/>
        <path d="M11.61,14.35a.18.18,0,0,0-.09-.1Z" style="fill: #fff"/>
        <path d="M11.61,14.35s0,0,0,0Z" style="fill: #fff"/>
        <path d="M11.32,14.92h0Z" style="fill: #fff"/>
        <path d="M13.76,20c.18.09.2.13,0,.09C13.91,20,13.9,20,13.76,20Z" style="fill: #fff"/>
        <path d="M11.36,15l-.06,0S11.31,15,11.36,15Z" style="fill: #fff"/>
        <path d="M13.86,20v0S13.88,20,13.86,20Z" style="fill: #fff"/>
        <path d="M8,6.31H8C8,6.39,8,6.39,8,6.31Z" style="fill: #fff"/>
        <path d="M12.94,17.54h0A0,0,0,0,0,12.94,17.54Z" style="fill: #fff"/>
        <path d="M7.56,7h0S7.55,7,7.56,7Z" style="fill: #fff"/>
        <path d="M10.57,13.55s0,0,0,0Z" style="fill: #fff"/>
        <path d="M13.83,20.23h0Z" style="fill: #fff"/>
        <path d="M13.67,19.86s0-.1,0-.11S13.62,19.88,13.67,19.86Z" style="fill: #fff"/>
        <path d="M13.74,19.28s0-.07.07,0c0-.15-.05.05-.09-.07Z" style="fill: #fff"/>
        <path d="M13.63,18.89s0,0,0,0S13.63,18.84,13.63,18.89Z" style="fill: #fff"/>
        <path d="M12.76,16.87s0,0-.06,0Z" style="fill: #fff"/>
        <path d="M12.55,16.25l-.05-.05A.12.12,0,0,0,12.55,16.25Z" style="fill: #fff"/>
        <path d="M11,12.91l-.06,0S11,12.94,11,12.91Z" style="fill: #fff"/>
        <path d="M8.35,7.13l0,0S8.32,7.13,8.35,7.13Z" style="fill: #fff"/>
        <path d="M12.2,0c-.09,0-.09,0,0,.05Z" style="fill: #fff"/>
        <path d="M12.07.16s0,0,0,0S12.09,0,12.07.16Z" style="fill: #fff"/>
        <path d="M12,.17a.22.22,0,0,0,.17.09.26.26,0,0,1-.12-.08S12,.19,12,.17Z" style="fill: #fff"/>
        <path d="M12.06.18v0S12.06.17,12.06.18Z" style="fill: #fff"/>
        <path d="M11.24,3.05s0,0,0,0Z" style="fill: #fff"/>
        <path d="M8.53,18H8.46S8.51,18.11,8.53,18Z" style="fill: #fff"/>
        <path d="M10.73,7.87s-.11.1,0,0Z" style="fill: #fff"/>
        <path d="M8.52,14.77l.05,0C8.58,14.73,8.57,14.72,8.52,14.77Z" style="fill: #fff"/>
        <path d="M12,.51v0S12,.5,12,.51Z" style="fill: #fff"/>
        <path d="M10.46,6.42V6.29A.12.12,0,0,0,10.46,6.42Z" style="fill: #fff"/>
        <path d="M9.92,9.1s0,0,0-.08Z" style="fill: #fff"/>
        <path d="M12.1.57c-.09-.18-.08-.22,0-.1C12,.47,12,.5,12.1.57Z" style="fill: #fff"/>
        <path d="M10.45,6.29v0Z" style="fill: #fff"/>
        <path d="M11.8,1.84h0Z" style="fill: #fff"/>
        <path d="M9.3,14.49h0S9.29,14.51,9.3,14.49Z" style="fill: #fff"/>
        <path d="M11,6h0S11,6.06,11,6Z" style="fill: #fff"/>
        <path d="M11.15,4.68a.08.08,0,0,1,0,.05S11.19,4.69,11.15,4.68Z" style="fill: #fff"/>
        <path d="M10.8,7.54s0,0,0,0Z" style="fill: #fff"/>
        <path d="M12.18.35s0,0,0,0Z" style="fill: #fff"/>
        <path d="M12.09.73s-.07.07,0,.1S12.14.74,12.09.73Z" style="fill: #fff"/>
        <path d="M11.64,1.24l0-.09s-.07,0-.06,0S11.68,1.12,11.64,1.24Z" style="fill: #fff"/>
        <path d="M11.54,1.52c0-.05,0,0,0,0S11.51,1.56,11.54,1.52Z" style="fill: #fff"/>
        <path d="M11.1,3.64l-.07,0S11.06,3.63,11.1,3.64Z" style="fill: #fff"/>
        <polygon points="10.84 4.26 10.83 4.24 10.84 4.31 10.84 4.26" style="fill: #fff"/>
        <path d="M10.11,7.82h.08S10.09,7.77,10.11,7.82Z" style="fill: #fff"/>
        <path d="M9.82,9.46s0-.07,0-.09S9.79,9.42,9.82,9.46Z" style="fill: #fff"/>
        <path d="M8.74,13.92V14S8.77,13.94,8.74,13.92Z" style="fill: #fff"/>
        <path d="M21.42,6.47c-.05-.08-.07-.07,0,0Z" style="fill: #fff"/>
        <path d="M21.18,6.45s0,0,0,0a.18.18,0,0,0,0,.2C21.16,6.52,21.16,6.47,21.18,6.45Z" style="fill: #fff"/>
        <path d="M21.19,6.45s0,0,.08,0S21.33,6.39,21.19,6.45Z" style="fill: #fff"/>
        <path d="M21.18,6.45h0Z" style="fill: #fff"/>
        <path d="M18.07,7.42H18S18,7.42,18.07,7.42Z" style="fill: #fff"/>
        <path d="M13.31,9.1s0,0,0,0S13.33,9.08,13.31,9.1Z" style="fill: #fff"/>
        <path d="M2.39,13.71l-.05-.05C2.37,13.71,2.29,13.76,2.39,13.71Z" style="fill: #fff"/>
        <path d="M13.18,9.74Z" style="fill: #fff"/>
        <path d="M14.3,9.31l.12-.13C14.37,9.22,14.26,9.23,14.3,9.31Z" style="fill: #fff"/>
        <path d="M5.45,11.85v.06C5.53,11.86,5.54,11.84,5.45,11.85Z" style="fill: #fff"/>
        <path d="M14.5,8.61s0,0,0,0Z" style="fill: #fff"/>
        <path d="M20.94,6.67c-.08-.11-.11-.1-.11,0C21,6.53,21,6.51,20.94,6.67Z" style="fill: #fff"/>
        <path d="M20.83,6.6h0Z" style="fill: #fff"/>
        <path d="M14.42,9.18Z" style="fill: #fff"/>
        <path d="M14.5,8.61a.21.21,0,0,0-.11.08Z" style="fill: #fff"/>
        <path d="M11.57,9.77s0,0,.08,0Z" style="fill: #fff"/>
        <path d="M3.32,12.83h0S3.34,12.82,3.32,12.83Z" style="fill: #fff"/>
        <polygon points="6.14 12.34 6.14 12.32 6.13 12.34 6.14 12.34" style="fill: #fff"/>
        <path d="M15.08,9h0S15.06,9,15.08,9Z" style="fill: #fff"/>
        <path d="M13.53,9.61h0Z" style="fill: #fff"/>
        <path d="M21.07,6.65s0,0,0,0Z" style="fill: #fff"/>
        <path d="M20.67,6.79s-.11,0-.12,0S20.69,6.85,20.67,6.79Z" style="fill: #fff"/>
        <path d="M20.05,6.69s-.06,0,0-.07c-.15,0,0,0-.09.09Z" style="fill: #fff"/>
        <path d="M19.62,6.79c.05,0,0,0,0,0S19.57,6.78,19.62,6.79Z" style="fill: #fff"/>
        <path d="M17.37,7.63V7.57S17.36,7.59,17.37,7.63Z" style="fill: #fff"/>
        <polygon points="16.65 7.77 16.66 7.75 16.6 7.8 16.65 7.77" style="fill: #fff"/>
        <path d="M12.88,9.2l0,.07S12.92,9.16,12.88,9.2Z" style="fill: #fff"/>
        <path d="M11.28,9.88s-.08,0-.1,0S11.27,9.9,11.28,9.88Z" style="fill: #fff"/>
        <path d="M6.32,11.59a.05.05,0,0,0,.06,0Z" style="fill: #fff"/>
        <path d="M21.33,14.88h.06C21.39,14.78,21.37,14.79,21.33,14.88Z" style="fill: #fff"/>
        <path d="M21.22,14.72s0,0,.05.06S21.36,14.76,21.22,14.72Z" style="fill: #fff"/>
        <path d="M21.21,14.71h0Z" style="fill: #fff"/>
        <path d="M21.22,14.66a.2.2,0,0,0-.11.16c0-.07.07-.1.1-.11S21.19,14.69,21.22,14.66Z" style="fill: #fff"/>
        <path d="M18.22,13.51l0,0S18.2,13.49,18.22,13.51Z" style="fill: #fff"/>
        <path d="M13.53,11.82s0,0,0,0S13.55,11.82,13.53,11.82Z" style="fill: #fff"/>
        <path d="M2.27,8.55a.17.17,0,0,1,0-.07S2.17,8.52,2.27,8.55Z" style="fill: #fff"/>
        <path d="M13,12.24Z" style="fill: #fff"/>
        <path d="M15.05,12.8a.11.11,0,0,0-.08,0S15,12.85,15.05,12.8Z" style="fill: #fff"/>
        <path d="M14.75,12.19s0,0,0,0Z" style="fill: #fff"/>
        <path d="M14.75,12.19a.23.23,0,0,0-.14,0Z" style="fill: #fff"/>
        <path d="M5.78,9l0,0C5.84,9.08,5.86,9.07,5.78,9Z" style="fill: #fff"/>
        <path d="M11.78,11.25s0,0,.08,0Z" style="fill: #fff"/>
        <path d="M20.85,14.61h0Z" style="fill: #fff"/>
        <path d="M20.87,14.62s0,0-.09.07c.21-.06.24,0,.1,0C21.13,14.67,21.13,14.63,20.87,14.62Z" style="fill: #fff"/>
        <path d="M20.84,14.49a.18.18,0,0,0-.22-.09s0-.07.05-.05c-.21,0-.27,0-.19-.07q-.26.29-.18-.09a5.42,5.42,0,0,1-1-.39c-.21.07-.25,0-.11-.05s-1.26-.14-.91-.22h0a6.26,6.26,0,0,0-.82-.31c.07,0,0,0,.07,0s-.08-.09-.18-.05c.14-.16-1.61.06-.89-.39-.09-.11-.13-.12-.11,0-.08-.07-.15-.05-.24-.11.1.21-.45,0-.19-.12-.11,0-.16-.09-.2-.12h.05c-.08,0-.1,0-.07,0s-.05,0,0,0c0,.16-.1.17-.19,0,.11.07,0-.07.11,0A2.2,2.2,0,0,1,14.13,12s-.11,0-.15,0c0-.14-.15-.16-.33,0,.06,0,0-.09.1-.1s-.06,0-.08,0-.22,0-.27.07a1,1,0,0,0-.64-.31s0,0,0,0q-.55-.15-.33-.18c-.2.06-.29,0-.24-.06a.63.63,0,0,1-.33,0s-.18-.19-.15-.23a1.31,1.31,0,0,0-.68-.06.78.78,0,0,1,.25-.07c-1.85-.66.53-.61,1.14-1.1,0,0,0,0,0,.05a5.82,5.82,0,0,0,.83-.41c0,.11.19,0,.23-.05,0,.11.1.09.14,0a4.78,4.78,0,0,0,.8-.31c.2-.21.29-.24.24-.06.38-.29.51-.35.42-.17a.25.25,0,0,0,.07-.26c0,.15.16,0,.15.18,0-.1,0-.1,0,0,.11-.17.15-.2.13-.07.11-.16.16-.2.13-.1.33-.14.32-.21.52-.17l-.05,0c.18-.14.22-.15.14-.05l.12-.06c-.11,0-.12,0,0-.13s.37.33.44-.12c0,.12.05.11.14,0,0,0,0,0,0,0A8.62,8.62,0,0,0,19,7.2c.47,0,.62,0,.46,0h.11a4.11,4.11,0,0,1,1.26-.58c-.08.06-.11,0-.08-.08a.17.17,0,0,0-.23.06s0-.06,0-.06c-.17.11-.24.13-.19.06,0,.25-.08.27-.2,0A5.49,5.49,0,0,1,19.07,7c-.12.19-.16.2-.12,0-.06,0-.09,0-.11.1s-.26,0-.22.16c-1.27.64-1.7.76-1.32.37-.08,0-.11,0-.17.08,0-.21-1.22,1.07-.95.26-.14,0-.17,0-.1.06-.1,0-.14,0-.25.06.21.1-.35.29-.23,0-.07.09-.18,0-.23,0l0,0c-.09,0-.1,0,0,.08s-.05,0-.06,0c.07.15,0,.2-.12.16.12,0,0-.07.05-.12-.25.19-1,.82-1.38.57,0,0-.11,0-.09.13-.12-.08-.21,0-.28.17,0-.06-.05-.07,0-.14s-.07,0-.06,0-.2.11-.17.23a.92.92,0,0,0-.7.17s0,0,0,0c-.36.15-.48.17-.37.06-.13.18-.2.22-.23.12a.59.59,0,0,1-.24.23s-.25,0-.25-.08a1.22,1.22,0,0,0-.58.39c0-.09.11-.16.15-.22-.23.21-.23.14,0-.19s.44-.4.6-.65c0,0,0,0,0,.06a9.24,9.24,0,0,0,1.06-1,5.14,5.14,0,0,0,.71-.67,1.11,1.11,0,0,0,.58-.8c.06.15.15-.09.21.11,0-.09,0-.1,0,0,.05-.22.09-.26.1-.12.07-.21.1-.27.11-.15.29-.29.24-.34.47-.4h-.06c.06,0,.07-.15.15-.18l0,.07.1-.12-.09,0c0-.1-.08-.09,0-.14.1-.2.5.15.41-.32.05.12.09.09.13-.09,0,0,0,0,0,0l.19-.11h0s1.83-1.75,1.73-1.59-.14,0,0-.14c.47-.22.63-.3.46-.23l.12,0c.22-.84.6-1.18,1.12-1,.06-.24.09-.27.1-.09-.26-.11-.41-.08-.46.1,0,0-.06,0,0-.06-.14.18-.2.23-.17.15a3.74,3.74,0,0,0-.73.65c.05-.31-.26.59-.42.29-.06.25-.1.28-.11.09a.15.15,0,0,0-.08.15,3.37,3.37,0,0,0-.65.63h0c-.27.23-.52.4-.77.65,0-.08,0,0,0-.08-.08.05-.12,0-.15.15,0-.2-.86,1.61-.87.68-.16,0-.19.06-.08.1-.12,0-.14.12-.24.18.25,0-.26.42-.23.13,0,.11-.17.1-.22.14l0-.06c-.08.06-.07.09,0,.09s-.05,0-.07,0,.1.18-.07.2c.12-.07-.06,0,0-.13-.15.23-.71.68-.73.8l.1-.15a1.41,1.41,0,0,1-.59.52s-.1.08,0,.16c-.16,0-.24.07-.24.29,0-.06-.07,0,0-.14s-.07,0,0,.08c-.13.09-.16.18-.1.29a1.2,1.2,0,0,0-.65.48s0,0,0,0c-.42.17-.47.44-.71.77,0,0-.27.09-.29,0a1.24,1.24,0,0,0-.4.54c.09-.29.23-.61.22-.6,0-.24.1-.46.07-.7,0,0,0,0,0,.05a4.78,4.78,0,0,0,.08-.84c.11,0,.12-.13.08-.19A11.06,11.06,0,0,0,11,6a.23.23,0,0,0-.18-.19c.13.08.06-.13.23,0-.08,0-.08-.06,0,0-.09-.16-.08-.21,0-.12-.1-.23.16-.55.09-.74V4.8c0,.1-.09.08-.13,0s0-.06.08-.08h0c-.05-.13,0-.16.11-.1-.07,0,0-.15-.07-.21.11.06.12,0,.05-.12l0,0a4.57,4.57,0,0,0,.22-1.17c.13.13.06-1.32.37-1.36A3.24,3.24,0,0,1,12,.51c0,.1,0,.1-.11,0,.1.1.09.12,0,.07s0,.1-.06.08l0,.06s-.07,0-.05,0c0,.19,0,.25,0,.18.21.14.19.2-.05.17-.09.37-.19.73-.29,1.09s.37.74-.1.86a3.61,3.61,0,0,0-.19.77c0-.06,0,0,0-.06s-.08.07,0,.17c-.16-.12.23,1.41-.26.84-.1.09-.1.13,0,.11-.06.08,0,.13-.08.22.18-.11.06.41-.09.19,0,.09-.07.15-.09.19l0,0q0,.12.06.06s0,0,0,0c.16,0,.19.08.07.17.05-.1-.08,0-.07-.1,0,.3.1,1.22-.23,1.34,0,0,0,.1.07.13q-.21.08,0,.3c0-.05-.09,0-.12-.08s0,.06,0,.07,0,.21.11.24a.75.75,0,0,0-.22.61h0a.87.87,0,0,0-.08.84s-.15.18-.2.15a1,1,0,0,0,0,.63.76.76,0,0,1-.11-.22c0,.16-.11,1.08-.24.18l.06,0c-.28-.13-.34-.21-.18-.26-.34-.27-.41-.42-.21-.43-.16-.15-.19-.2-.07-.16a1.86,1.86,0,0,0-.76-1.54v0c.06-.2,0-.25-.13-.15A.84.84,0,0,0,8,6.61c.1,0-.35-.88-.29-.8s0-.26-.16-.17c.09,0,0-.13-.12-.18l.07,0a.4.4,0,0,1-.24-.2c.15.16-.35-.53,0-.47-.07,0-.47-.44-.32-.32,0,0,0,0,0,.09a4.28,4.28,0,0,1-.7-1.38s0,0,0,0A5.54,5.54,0,0,1,5.11,1.65q.24.1.12.3s.06.1.12.09.08.12,0,.17a.22.22,0,0,1,.13.06c-.15,0,.06.14-.08.18.13,0,.13.16.23.21s0,0,0,0c.07.28.28,0,0,.24.07,0,.12.07.17,0-.08.16.35.7.32.71s.13-.09.14,0,0,0,0,0c.86,0,.25,1.92,1,2.31a3.53,3.53,0,0,1,.46,1L7.57,7c.19,0,.27.17.24.43.09,0,.14.87.27.68.08.05.07.07,0,.07.12,0,.34.74.54.79-.06,0,0,.13-.07.1,2.35,2.42,0,.59.28.7-.5-.13-.65-.24-.45-.34-.24-.09-.3-.14-.16-.14A2.48,2.48,0,0,0,6.62,8h0c0-.21-.11-.25-.21-.09a1.16,1.16,0,0,0-.58-.53s-1-.82-.73-.69c-.06-.05-.18-.24-.25-.11.06-.07-.12-.11-.22-.14l.06,0a.51.51,0,0,1-.34-.11h.06a2.93,2.93,0,0,1-.54-.45c.54.45-.48-.38-.17-.14a.15.15,0,0,0-.23,0,2.9,2.9,0,0,0-1.2-1.1s0,0,0,0a8.1,8.1,0,0,1-2-1.1c.19,0,.28.08.28.25.16,0,.24.06.24.22a.33.33,0,0,1,.17,0c-.15,0,.13.12,0,.22.12-.06.21.1.34.12s0,0,0,0a.43.43,0,0,0,.14.23c.05-.06.16,0,.18,0,0,.41.75.39.85.54S4.15,7,4.67,7.06a4.91,4.91,0,0,1,1,.85L5.64,8c.21,0,.37.06.47.34.07.08.15.15.23.23-.31-.94.5.39.43.42.16-.05.73.61,1,.59,0,0,.06.13,0,.12A1.48,1.48,0,0,0,8,9.83a1.31,1.31,0,0,0-1.11-.32h0c-.11-.18-.18-.19-.21,0A1,1,0,0,0,6,9.24c.05-.09-.94-.38-.85-.36s-.23-.16-.25,0c0-.09-.14-.06-.23,0l0-.07a.4.4,0,0,1-.32,0c.26,0-.68-.12-.36-.34-.08,0-.69,0-.48,0,0,0,0,0,.09,0A4.5,4.5,0,0,1,2.06,8a.06.06,0,0,1,0,0A6.61,6.61,0,0,1,0,7.77c.17-.07.28,0,.32.13A.17.17,0,0,1,.6,8,.23.23,0,0,1,.75,8c-.12.1.15.06.08.19.09-.1.22,0,.33,0s0,0,0,0c.27.14.22-.18.2.16,0-.08.14,0,.14-.11.16.37.77.09.9.19C.79,7.72,5.9,9.85,6,9.75l0,.07c.16-.12.34-.08.51.13.09,0,.79.53.74.3.09,0,.1,0,0,.06.11-.1.83.29,1,.18,0,.06.1.09,0,.12.28.12.29.19,0,.23a2.11,2.11,0,0,0-1.74.69h0c-.2-.07-.26,0-.17.13a1,1,0,0,0-.69.22s-1.1.37-.9.25c-.07,0-.28,0-.2.16,0-.09-.15,0-.21.11v-.07a.48.48,0,0,1-.24.23c.21-.17-.61.34-.5,0-.05.07-.54.46-.38.3q0,.06.09,0a12.32,12.32,0,0,0-1.55.64s0,0,0,0A6.63,6.63,0,0,1,.11,14.55c.09-.16.2-.19.34-.1.06-.14.15-.17.29-.09a.2.2,0,0,1,.08-.13c0,.15.16-.05.19.09,0-.13.18-.13.25-.22s0,0,0,0a.39.39,0,0,0,.26,0c0-.07.09-.12,0-.17.36.18.67-.43.83-.44-1.67.49,3.7-1.1,3.74-1.27l0,.07c.05-.2.21-.27.48-.22l.3-.07c1-.46,1.3-.55.89-.28A2.69,2.69,0,0,0,6.27,13.2h0c-.23,0-.27.08-.13.19a1.2,1.2,0,0,0-.63.53s-1,.86-.83.64c-.06.06-.27.16-.16.25-.06-.07-.13.1-.17.2l0-.06a.52.52,0,0,1-.16.32V15.2a2.29,2.29,0,0,1-.55.48c.39-.34-.35-.3-.25.24l.08-.08a.15.15,0,0,0,0,.23c-.24-.06-.55.41-.56.31a7,7,0,0,1-.77.77h0A8.62,8.62,0,0,1,.65,19c0-.2.13-.28.3-.25a.22.22,0,0,1,.27-.22.24.24,0,0,1,0-.16c0,.15.14-.12.22,0,0-.13.14-.2.18-.33s0,0,0,0A.5.5,0,0,0,1.92,18c-.06-.06.05-.15,0-.18.56-.15.8-.41.7-.8C3,16.75,6,14.74,6,14.13l.06,0c0-.23.13-.37.42-.43l.27-.2c-1,.2.49-.46.5-.38,0-.18.75-.65.77-.9.16.14.9-.66,1-.74.42,0,.53-.07.33-.11.11.42.08.57-.08.46,0,.22,0,.28,0,.18a1.78,1.78,0,0,0-.31,1.66v0c-.16.13-.15.19,0,.2a.81.81,0,0,0-.17.63c-.08,0-.25.93-.25.8,0,.07-.12.23,0,.24-.1,0,0,.13,0,.21l-.06,0a.38.38,0,0,1,.07.29c0-.21,0,.62-.29.36,0,.07.11.62.06.44,0,0,0,0,0-.09A4.14,4.14,0,0,1,8,18.25l0,0a5.44,5.44,0,0,1,0,1.93C8,20,8,19.9,8.14,19.85c0-.05,0-.11-.05-.14s0-.15.12-.12a.26.26,0,0,1-.06-.13c.11.09,0-.14.17-.1-.1-.07,0-.19-.06-.3s0,0,0,0c.11-.27-.21-.19.14-.19-.08,0-.06-.13-.13-.12.16-.08.14-.75.17-.75-.12,0-.16,0-.11-.1s0,0,0,.05c-.66-.55.95-1.67.58-2.42a3.67,3.67,0,0,1,.24-1.09l.08,0q-.21-.21.06-.48c0-.08.42-.77.2-.7,0-.08,0-.09.05,0-.1-.08.16-.79,0-.95.06,0,.08-.1.11,0a1.76,1.76,0,0,1,0-.51c0,.11,0,.19,0,.18.19.18.2.44.38.61,0,0,0,0-.06,0a4.93,4.93,0,0,0,.45.73c-.11,0,0,.18.05.2-.1.06-.08.1,0,.13-.1.22.59,1.35.87,1.33-.16,0,0,.15-.18.16.1,0,.11,0,0,0,.17.08.19.12.07.1.16.1.2.13.1.12a3.45,3.45,0,0,1,.28.54l.07.1c0-.12.17.35.26.35-.12,0-.11.06,0,.13h0c.17.83.91,1.42,1,2.31h0v.11a3.09,3.09,0,0,1,.62,1.1c0-.08,0-.1.09-.08-.15,0-.15-.05,0-.07,0-.06,0-.1,0-.11l-.05,0s.07,0,.07,0c-.12-.16-.14-.21-.08-.18-.24,0-.26,0,0-.17-.19.1-.17-.46-.28-.55.3.1-.47-.32-.12-.4-.19-.09-.2-.13,0-.11a2.47,2.47,0,0,1-.28-.28c-.06-.06.27-.22-.16-.46h0a5.51,5.51,0,0,0-.31-.76c.06,0,0,0,.05,0s0-.11-.08-.15c.21,0-1.05-1-.3-.84q0-.21-.06-.09c0-.1-.06-.13-.08-.23-.08.2-.29-.3,0-.21-.08-.05,0-.16,0-.21l0,0c0-.08,0-.08-.09,0s0,0,0-.06-.19,0-.16-.1c0,.12.07,0,.12,0-.2-.23-.82-.92-.62-1.22,0,0,0-.09-.14-.06.08-.12,0-.21-.18-.25.07,0,.08-.05.14,0s0-.07,0-.05c-.05-.13-.12-.18-.23-.14-.35-.46-.41-.67-.17-.62-.41-.73-.23-.76.55-.1,0,0,0,0-.06,0a8.46,8.46,0,0,0,1.12.85,5.58,5.58,0,0,0,.73.58,1.08,1.08,0,0,0,.85.43c-.14.08.1.13-.08.22.09-.05.1,0,0,0,.21,0,.25.05.13.08.21,0,.26.06.16.08.31.23.36.18.44.39v-.06c.22.09.26.13.12.1l.13.08,0-.08c.09,0,.06-.09.13,0s.06.06.06.12h0c.15,0,.17.07.05.16.08,0,.16.1.25.06-.11.07-.07.11.11.11h0l.14.16h0a15.89,15.89,0,0,0,1.89,1.33c.27.42.37.56.28.41l.06.1a4.66,4.66,0,0,1,1.22.87c-.1,0-.08-.09,0-.11s-.09-.18-.19-.19,0-.06.06,0c-.2-.11-.25-.16-.16-.15a3.78,3.78,0,0,0-.73-.59c.31,0-.61-.15-.34-.36-.24,0-.27-.05-.09-.1A2.84,2.84,0,0,1,16,15.86c.08,0,0,0,.07,0-.05-.08,0-.12-.16-.13.2-.08-1.66-.57-.77-.73,0-.15-.08-.17-.1-.06-.06-.1-.13-.11-.2-.2,0,.24-.45-.19-.16-.2-.11,0-.12-.15-.16-.19h.06c-.06-.07-.09-.06-.09,0s0,0,0-.06q-.15.21-.21,0c.09.1,0-.07.13,0-.23-.1-.76-.57-.87-.57l.17.07a1.27,1.27,0,0,1-.58-.49s-.09-.07-.17,0c0-.15-.09-.21-.3-.17.06,0,0-.08.13-.06s-.06-.06-.08,0-.21-.13-.3,0a1.11,1.11,0,0,0-.54-.55s0,0,0,0c-.21-.38-.49-.38-.83-.56,0,0-.12-.24-.08-.27a.8.8,0,0,0-.45-.26c.22-.07,1.1.44,1.08.43.28,0,.49.16.76.16,0,0,0,0-.06,0a5.71,5.71,0,0,0,.91.21c0,.1.12.14.19.11s0,.13.14,0a4.39,4.39,0,0,0,.81.26.89.89,0,0,0,.87.08c-.09.13.13.09,0,.24.06-.08.08-.07,0,0,.19-.06.24-.05.14,0,.19,0,.25,0,.16,0,.34.1.38,0,.51.19l0-.05c.22,0,.27,0,.14.05l.13,0c-.1-.05-.08-.09.05-.11s.07,0,.09.09h0q.22-.06.09.12c.06-.07.17,0,.24,0s0,.11.13.06h0a8.36,8.36,0,0,0,2.21.63c.36.28.49.37.37.27l.09.07a3.73,3.73,0,0,1,1.32.34C20.75,14.6,20.75,14.56,20.84,14.49ZM14.58,8.64c0,.06,0,0,0,.08a.2.2,0,0,0-.11,0S14.55,8.64,14.58,8.64ZM13.4,6.85c0,.07,0,.06,0,.08a.25.25,0,0,0-.12,0S13.37,6.86,13.4,6.85Zm-2.89-.59s0,0,.08,0a.19.19,0,0,0-.08.07S10.49,6.28,10.51,6.26ZM6.75,5s0-.08,0-.07S6.76,4.92,6.75,5Zm.3-.51c0,.06,0,.06,0,0ZM3.69,6.16s0,0,0,.08S3.63,6.18,3.69,6.16Zm0-.53s0,0,0,0S3.7,5.62,3.68,5.63ZM3.59,8.4s0,0,.06,0Zm.17.49s0,0,0,.06S3.71,8.92,3.76,8.89Zm-.42,3.87s0,0,0,0S3.34,12.74,3.34,12.76Zm.44.26s0,0,.07,0S3.76,13.09,3.78,13Zm-.45,2.84s0,0,0,0S3.32,15.84,3.33,15.86Zm.54.05s0,0,.08,0S3.88,16,3.87,15.91Zm4.3.89s0,0,0,0Zm.49-.18s0,0,.06,0S8.7,16.66,8.66,16.62Zm2.86-2.29c.09.07.09.11,0,.1A.16.16,0,0,0,11.52,14.33Zm2.13-.46c-.07,0-.06,0-.07.05a.25.25,0,0,0,0-.11C13.59,13.83,13.64,13.85,13.65,13.87Zm-5.57-4h0S8.08,9.8,8.08,9.83Zm0,.06a.39.39,0,0,1,.19.17C8.18,10.07,8.12,10,8.09,9.89ZM8,11.64a1.72,1.72,0,0,0,.28-.17C8.14,11.71,8.05,11.76,8,11.64Zm1.34-.49s0,0,0,0Zm5.41,1.18a.18.18,0,0,0-.07-.08C14.8,12.23,14.82,12.26,14.74,12.33Z" style="fill: #fff"/>
        <path d="M14.15,12.61l.17,0C14.26,12.59,14.17,12.52,14.15,12.61Z" style="fill: #fff"/>
        <path d="M14.32,12.58Z" style="fill: #fff"/>
        <path d="M3.54,8.45h0S3.56,8.45,3.54,8.45Z" style="fill: #fff"/>
        <path d="M18.24,13.52h0Z" style="fill: #fff"/>
        <polygon points="6 9.84 6.01 9.82 5.99 9.83 6 9.84" style="fill: #fff"/>
        <path d="M15,12.82h0S15,12.82,15,12.82Z" style="fill: #fff"/>
        <path d="M16.43,13.14h-.05S16.42,13.17,16.43,13.14Z" style="fill: #fff"/>
        <path d="M13.37,12.36h0Z" style="fill: #fff"/>
        <path d="M21,14.81h0Z" style="fill: #fff"/>
        <path d="M20.61,14.66s-.07-.09-.11-.06S20.59,14.71,20.61,14.66Z" style="fill: #fff"/>
        <path d="M20.1,14.14l.09,0s0-.07,0-.06S20.23,14.19,20.1,14.14Z" style="fill: #fff"/>
        <path d="M19.8,14c.06,0,0,0,0-.05S19.77,14,19.8,14Z" style="fill: #fff"/>
        <path d="M17.58,13.18s0,0,0,.06Z" style="fill: #fff"/>
        <polygon points="16.91 12.89 16.93 12.88 16.86 12.88 16.91 12.89" style="fill: #fff"/>
        <path d="M13.13,11.63v.08S13.19,11.63,13.13,11.63Z" style="fill: #fff"/>
        <path d="M11.48,11.16c0-.05,0-.09-.08-.06S11.46,11.16,11.48,11.16Z" style="fill: #fff"/>
        <path d="M6.61,9.37s0,0,.07,0Z" style="fill: #fff"/>
      </g>
    </g>
  </g>
</svg>
